<?xml version="1.0" encoding="UTF-8"?>
<!DOCTYPE svg PUBLIC "-//W3C//DTD SVG 1.1//EN" "http://www.w3.org/Graphics/SVG/1.1/DTD/svg11.dtd">
<!-- Creator: CorelDRAW 2019 (64-Bit) -->
<svg xmlns="http://www.w3.org/2000/svg" xml:space="preserve" width="1000px" height="1000px" version="1.1" style="shape-rendering:geometricPrecision; text-rendering:geometricPrecision; image-rendering:optimizeQuality; fill-rule:evenodd; clip-rule:evenodd"
viewBox="0 0 1000 1000"
 xmlns:xlink="http://www.w3.org/1999/xlink"
 xmlns:xodm="http://www.corel.com/coreldraw/odm/2003">
 <defs>
  <style type="text/css">
   <![CDATA[
    .str1 {stroke:white;stroke-width:33;stroke-miterlimit:22.9256}
    .str0 {stroke:white;stroke-width:8;stroke-miterlimit:22.9256}
    .fil1 {fill:none}
    .fil0 {fill:white;fill-rule:nonzero}
   ]]>
  </style>
 </defs>
 <g id="Слой_x0020_1">
  <metadata id="CorelCorpID_0Corel-Layer"/>
  <g id="_1964271481632">
   <g>
    <path class="fil0 str0" d="M658.902 135.704c181.77,0 329.128,147.358 329.128,329.127 0,76.692 -26.238,147.252 -70.219,203.208l-0.058 -1.953c0.249,-10.186 -2.72,-18.999 -10.435,-25.773 35.088,-49.579 55.712,-110.12 55.712,-175.482 0,-167.966 -136.161,-304.127 -304.128,-304.127 -83.175,0 -158.537,33.401 -213.436,87.511 -2.875,-3.858 -6.771,-7.174 -11.725,-9.56 -3.71,-1.785 -7.028,-2.947 -10.59,-3.453 59.78,-61.374 143.309,-99.498 235.751,-99.498zm-288.894 188.927c-4.227,2.127 -9.396,5.947 -12.385,9.569l-1.99 2.571c2.455,-5.806 5.077,-11.524 7.85,-17.154 1.906,1.935 4.09,3.622 6.525,5.014z"/>
    <path class="fil0 str0" d="M747.824 365.698c107.809,54.052 181.815,165.574 181.815,294.385 0,181.769 -147.358,329.127 -329.127,329.127 -40.466,0 -79.225,-7.308 -115.034,-20.67l4.182 0.226c12.81,-0.161 22.264,-7.03 27.143,-16.222 26.594,7.597 54.677,11.666 83.709,11.666 167.966,0 304.127,-136.161 304.127,-304.127 0,-117.786 -66.969,-219.91 -164.9,-270.427 6.023,-6.428 8.929,-15.218 8.085,-23.958z"/>
    <path class="fil0 str0" d="M729.454 693.035c-16.394,166.439 -156.767,296.476 -327.517,296.476 -181.769,0 -329.127,-147.358 -329.127,-329.127 0,-7.117 0.227,-14.18 0.673,-21.184 2.479,3.023 2.718,4.17 6.523,7.31l3.406 2.806c4.127,4.03 9.114,6.9 14.409,8.449 -0.007,0.872 -0.011,1.745 -0.011,2.619 0,167.966 136.161,304.127 304.127,304.127 156.552,0 285.453,-118.291 302.252,-270.364 7.879,3.14 17.024,3.147 25.265,-1.112z"/>
    <path class="fil0 str0" d="M501.483 10.489c90.884,0 173.167,36.839 232.728,96.401 22.097,22.096 41.062,47.323 56.183,74.953l0 0.763c-0.262,-0.089 -0.53,-0.168 -0.808,-0.232 -5.155,-8.93 -14.817,-15.403 -27.526,-15.403 -3.576,0 -6.716,0.095 -9.736,0.635 -10.602,-15.435 -22.591,-29.842 -35.789,-43.04 -55.036,-55.036 -131.069,-89.077 -215.052,-89.077 -167.966,0 -304.127,136.161 -304.127,304.128 0,48.805 11.5,94.922 31.933,135.795 -9.351,2.451 -16.099,8.674 -19.75,16.296 -23.75,-45.49 -37.183,-97.221 -37.183,-152.091 0,-181.769 147.358,-329.128 329.127,-329.128z"/>
    <path class="fil0 str0" d="M501.483 116.032c42.345,0 81.94,11.775 115.692,32.226 -11.159,-0.464 -21.422,4.338 -27.492,13.39 -26.572,-13.195 -56.519,-20.616 -88.2,-20.616 -109.676,0 -198.584,88.909 -198.584,198.585 0,14.892 1.64,29.4 4.749,43.355 -6.955,2.612 -13.138,7.834 -16.978,15.809 -1.192,2.476 -2.202,4.466 -3.035,6.292 -6.33,-20.702 -9.736,-42.681 -9.736,-65.456 0,-123.48 100.105,-223.585 223.584,-223.585z"/>
    <path class="fil0 str0" d="M661.745 244.06c123.48,0 223.585,100.106 223.585,223.586 0,13.387 -1.177,26.5 -3.433,39.239 -3.326,-3.756 -7.703,-6.723 -12.409,-8.44 -1.339,-0.489 -4.233,-3.105 -10.797,-4.448l-0.093 -0.017c1.142,-8.616 1.732,-17.406 1.732,-26.334 0,-109.677 -88.908,-198.586 -198.585,-198.586 -38.555,0 -74.544,10.988 -105.006,30.001 -4.205,-6.386 -10.832,-11.316 -19.443,-13.08 -2.185,-0.447 -3.326,-0.786 -4.481,-1.021 36.435,-25.761 80.915,-40.9 128.93,-40.9zm-180.369 133.504l0 -0.453c0.37,0.199 0.745,0.393 1.123,0.579 -0.376,-0.048 -0.75,-0.09 -1.123,-0.126z"/>
    <path class="fil0 str0" d="M738.764 486.537c51.279,40.962 84.141,104.005 84.141,174.74 0,61.741 -25.026,117.637 -65.487,158.098 -34.201,34.2 -79.43,57.369 -129.893,63.722 9.168,-5.931 14.749,-16.567 14.286,-27.796 37.784,-8.235 71.552,-27.223 97.931,-53.602 35.935,-35.936 58.163,-85.583 58.163,-140.422 0,-56.118 -23.286,-106.786 -60.715,-142.896 6.261,-9.446 6.788,-21.895 1.574,-31.844z"/>
    <path class="fil0 str0" d="M618.712 605.413c0.267,1.058 0.527,2.119 0.779,3.183 -1.593,-0.289 -3.212,-0.456 -4.844,-0.49 1.415,-0.781 2.775,-1.679 4.065,-2.693zm-0.799 112.952c-25.541,95.37 -112.551,165.603 -215.976,165.603 -93.744,0 -173.997,-57.704 -207.22,-139.525 3.088,-0.53 6.09,-1.5 8.892,-2.879 2.206,1.727 4.083,3.328 7.457,4.954 4.196,2.022 8.81,3.048 13.441,3.126 32.684,64.843 99.858,109.324 177.43,109.324 86.065,0 159.33,-54.75 186.892,-131.318 9.851,2.079 20.798,-0.506 29.084,-9.285zm-22.671 -103.659c-0.232,-0.985 -0.471,-1.967 -0.717,-2.946 1.546,0.202 3.1,0.298 4.649,0.29 -1.341,0.765 -2.654,1.651 -3.932,2.656z"/>
    <path class="fil0 str0" d="M340.681 687.569c-122.909,-0.669 -222.345,-100.504 -222.345,-223.57 0,-61.741 25.026,-117.636 65.487,-158.097 3.167,-3.167 6.429,-6.24 9.78,-9.213 -1.09,3.04 -2.013,6.588 -2.281,9.219 -0.409,4.032 -1.863,4.515 -1.759,12.759 0.065,5.183 1.287,9.911 3.375,14.028 -30.87,35.001 -49.602,80.964 -49.602,131.304 0,106.196 83.353,192.918 188.205,198.317 -0.97,8.62 1.633,17.749 8.874,24.99l0.266 0.263z"/>
    <path class="fil1 str1" d="M214.567 472.866l1.337 2.271m54.728 92.94l172.847 293.526"/>
    <line class="fil1 str1" x1="347.37" y1="487.551" x2="538.346" y2= "814.687" />
    <line class="fil1 str1" x1="146.024" y1="550.027" x2="360.826" y2= "322.318" />
    <line class="fil1 str1" x1="217.003" y1="634.07" x2="465.683" y2= "370.448" />
    <line class="fil1 str1" x1="297.147" y1="294.709" x2="641.492" y2= "448.758" />
    <line class="fil1 str1" x1="349.495" y1="201.103" x2="645.363" y2= "333.465" />
    <path class="fil1 str1" d="M382.87 782.081l5.233 -1.298m119.955 -29.768l298.891 -74.172"/>
    <path class="fil0 str0" d="M236.177 176.955c-116.377,43.681 -199.207,155.954 -199.207,287.592 0,169.609 137.493,307.1 307.102,307.1 17.615,0 34.883,-1.484 51.687,-4.332 -1.28,8.287 0.706,17.117 6.665,24.219 -18.945,3.36 -38.443,5.113 -58.352,5.113 -183.413,0 -332.102,-148.688 -332.102,-332.1 0,-151.964 102.073,-280.089 241.395,-319.559 -1.425,1.168 -3.294,2.158 -6.137,5.603l-4.117 5.967c-4.336,5.798 -6.982,13.129 -6.934,20.397z"/>
    <line class="fil1 str1" x1="446.328" y1="657.192" x2="787.061" y2= "572.637" />
    <line class="fil1 str1" x1="728.755" y1="592.718" x2="756.836" y2= "272.429" />
    <line class="fil1 str1" x1="620.223" y1="619.812" x2="652.27" y2= "254.282" />
   </g>
   <rect class="fil1" width="1000" height="1000"/>
  </g>
 </g>
</svg>
